<svg fill="none" viewBox="0 0 800 200" xmlns="http://www.w3.org/2000/svg"><linearGradient id="a" x1="0%" x2="100%" y1="0%" y2="100%"><stop offset="0" stop-color="#0c0a09"/><stop offset="1" stop-color="#1c1917"/></linearGradient><linearGradient id="b" x1="0%" x2="100%" y1="0%" y2="100%"><stop offset="0" stop-color="#1e3a8a"/><stop offset="1" stop-color="#1e40af"/></linearGradient><linearGradient id="c" x1="0%" x2="100%" y1="0%" y2="100%"><stop offset="0" stop-color="#065f46"/><stop offset="1" stop-color="#064e3b"/></linearGradient><linearGradient id="d" x1="0%" x2="100%" y1="0%" y2="100%"><stop offset="0" stop-color="#4c1d95"/><stop offset="1" stop-color="#5b21b6"/></linearGradient><rect fill="url(#a)" height="200" rx="16" width="800"/><!-- Card 1: Alert/Error card (blue, tilted back) --><g transform="matrix(.99939083 -.0348995 .0348995 .99939083 530 38)"><rect fill="url(#b)" height="52" opacity=".5" rx="8" stroke="#3b82f6" width="240"/><rect fill="#3b82f6" height="3" opacity=".4" rx="1.5" width="240"/><circle cx="22" cy="26" fill="#3b82f6" opacity=".6" r="9"/><path d="m19 28c0 0 0-3 0-5 0-2 1.5-3.5 3-3.5s3 1.5 3 3.5c0 2 0 5 0 5m-8 0h10m-3-9v1" stroke="#fff" stroke-linecap="round" stroke-width="1.2"/><g fill="#fff"><rect height="6" opacity=".25" rx="3" width="100" x="40" y="19"/><rect height="5" opacity=".12" rx="2.5" width="160" x="40" y="29"/></g></g><!-- Card 2: Heartbeat card (green, slightly tilted) --><g transform="matrix(.99996192 .00872654 -.00872654 .99996192 540 68)"><rect fill="url(#c)" height="52" opacity=".7" rx="8" stroke="#22c55e" width="240"/><rect fill="#22c55e" height="3" opacity=".5" rx="1.5" width="240"/><circle cx="22" cy="26" fill="#22c55e" opacity=".6" r="9"/><polyline fill="none" points="14,26 18,26 20,21 22,31 24,23 26,26 30,26" stroke="#fff" stroke-linecap="round" stroke-linejoin="round" stroke-width="1.3"/><g fill="#fff"><rect height="6" opacity=".3" rx="3" width="80" x="40" y="19"/><rect height="5" opacity=".15" rx="2.5" width="140" x="40" y="29"/></g></g><!-- Card 3: Status OK card (purple, tilted forward) --><g transform="matrix(.9998477 .01745241 -.01745241 .9998477 548 100)"><rect fill="url(#d)" height="52" opacity=".9" rx="8" stroke="#8b5cf6" width="240"/><rect fill="#8b5cf6" height="3" opacity=".7" rx="1.5" width="168"/><circle cx="22" cy="26" fill="#8b5cf6" opacity=".7" r="9"/><path d="m18 26 3 3 5-6" fill="none" stroke="#fff" stroke-linecap="round" stroke-linejoin="round" stroke-width="1.5"/><rect fill="#fff" height="6" opacity=".4" rx="3" width="90" x="40" y="19"/><rect fill="#fff" height="5" opacity=".2" rx="2.5" width="150" x="40" y="29"/></g><!-- Title --><text fill="#fff" font-family="system-ui, -apple-system, 'Segoe UI', sans-serif" font-size="40" font-weight="700" letter-spacing="-.5" x="60" y="85">Laravel</text><text fill="#fff" font-family="system-ui, -apple-system, 'Segoe UI', sans-serif" font-size="40" font-weight="700" letter-spacing="-.5" x="60" y="115">Observability</text><!-- Feature pills --><g transform="translate(60 135)"><rect fill="#1a1a1a" height="22" opacity=".8" rx="11" stroke="#a78bfa" stroke-width=".8" width="82"/><text fill="#a78bfa" font-family="system-ui, sans-serif" font-size="10" font-weight="500" text-anchor="middle" x="41" y="15">25+ Providers</text><rect fill="#1a1a1a" height="22" opacity=".8" rx="11" stroke="#60a5fa" stroke-width=".8" width="82" x="90"/><text fill="#60a5fa" font-family="system-ui, sans-serif" font-size="10" font-weight="500" text-anchor="middle" x="131" y="15">Health Checks</text><rect fill="#1a1a1a" height="22" opacity=".8" rx="11" stroke="#4ade80" stroke-width=".8" width="56" x="180"/><text fill="#4ade80" font-family="system-ui, sans-serif" font-size="10" font-weight="500" text-anchor="middle" x="208" y="15">Uptime</text><rect fill="#1a1a1a" height="22" opacity=".8" rx="11" stroke="#fbbf24" stroke-width=".8" width="72" x="244"/><text fill="#fbbf24" font-family="system-ui, sans-serif" font-size="10" font-weight="500" text-anchor="middle" x="280" y="15">Auto-Detect</text><rect fill="#1a1a1a" height="22" opacity=".8" rx="11" stroke="#f87171" stroke-width=".8" width="88" x="324"/><text fill="#f87171" font-family="system-ui, sans-serif" font-size="10" font-weight="500" text-anchor="middle" x="368" y="15">15 Frameworks</text></g></svg>
