<svg xmlns="http://www.w3.org/2000/svg" viewBox="0 0 800 200">
  <defs>
    <linearGradient id="bg-dark" x1="0" y1="0" x2="0" y2="1">
      <stop offset="0%" stop-color="#0c0a09"/>
      <stop offset="100%" stop-color="#1c1917"/>
    </linearGradient>
    <linearGradient id="pulse-green-d" x1="0" y1="0" x2="0" y2="1">
      <stop offset="0%" stop-color="#4ade80"/>
      <stop offset="100%" stop-color="#22c55e"/>
    </linearGradient>
    <linearGradient id="pulse-blue-d" x1="0" y1="0" x2="0" y2="1">
      <stop offset="0%" stop-color="#60a5fa"/>
      <stop offset="100%" stop-color="#3b82f6"/>
    </linearGradient>
    <linearGradient id="pulse-amber-d" x1="0" y1="0" x2="0" y2="1">
      <stop offset="0%" stop-color="#fbbf24"/>
      <stop offset="100%" stop-color="#f59e0b"/>
    </linearGradient>
  </defs>

  <!-- Background -->
  <rect width="800" height="200" rx="16" fill="url(#bg-dark)"/>

  <!-- Monitoring illustration (right side) -->
  <g transform="translate(650, 25)">
    <!-- Dashboard card -->
    <rect width="120" height="140" rx="12" fill="#1a1a1a" stroke="#333" stroke-width="1"/>

    <!-- Heartbeat line -->
    <polyline points="12,75 28,75 36,50 44,100 52,55 60,85 68,75 80,75 88,45 96,90 104,60 110,75"
              fill="none" stroke="url(#pulse-green-d)" stroke-width="2.5" stroke-linecap="round" stroke-linejoin="round"/>

    <!-- Status dots -->
    <circle cx="20" cy="28" r="4" fill="url(#pulse-green-d)"/>
    <circle cx="35" cy="28" r="4" fill="url(#pulse-green-d)"/>
    <circle cx="50" cy="28" r="4" fill="url(#pulse-blue-d)"/>
    <circle cx="65" cy="28" r="4" fill="url(#pulse-green-d)"/>
    <circle cx="80" cy="28" r="4" fill="url(#pulse-amber-d)"/>
    <circle cx="95" cy="28" r="4" fill="url(#pulse-green-d)"/>

    <!-- Mini bar chart -->
    <rect x="15" y="100" width="10" height="22" rx="2" fill="#1e3a5f" opacity=".8"/>
    <rect x="30" y="95" width="10" height="27" rx="2" fill="#1e40af" opacity=".6"/>
    <rect x="45" y="90" width="10" height="32" rx="2" fill="#3b82f6" opacity=".5"/>
    <rect x="60" y="97" width="10" height="25" rx="2" fill="#1e40af" opacity=".6"/>
    <rect x="75" y="86" width="10" height="36" rx="2" fill="#60a5fa" opacity=".5"/>
    <rect x="90" y="93" width="10" height="29" rx="2" fill="#3b82f6" opacity=".5"/>
  </g>

  <!-- Title -->
  <text x="50" y="80" fill="#fff" font-family="system-ui, -apple-system, 'Segoe UI', sans-serif" font-size="36" font-weight="700" letter-spacing="-.5">Laravel Observability</text>

  <!-- Tagline -->
  <text x="50" y="105" fill="#a8a29e" font-family="system-ui, -apple-system, 'Segoe UI', sans-serif" font-size="13">Auto-detect 25+ monitoring providers with health checks</text>

  <!-- Feature pills -->
  <g transform="translate(50, 125)" font-family="system-ui, -apple-system, 'Segoe UI', sans-serif" font-size="10" font-weight="500">
    <!-- 25+ Providers -->
    <rect width="82" height="22" rx="11" fill="#1a1a1a" opacity=".8" stroke="#a78bfa" stroke-width=".8"/>
    <text x="41" y="15" fill="#a78bfa" text-anchor="middle">25+ Providers</text>

    <!-- Health Checks -->
    <rect x="90" width="82" height="22" rx="11" fill="#1a1a1a" opacity=".8" stroke="#60a5fa" stroke-width=".8"/>
    <text x="131" y="15" fill="#60a5fa" text-anchor="middle">Health Checks</text>

    <!-- Uptime -->
    <rect x="180" width="56" height="22" rx="11" fill="#1a1a1a" opacity=".8" stroke="#4ade80" stroke-width=".8"/>
    <text x="208" y="15" fill="#4ade80" text-anchor="middle">Uptime</text>

    <!-- Auto-Detect -->
    <rect x="244" width="72" height="22" rx="11" fill="#1a1a1a" opacity=".8" stroke="#fbbf24" stroke-width=".8"/>
    <text x="280" y="15" fill="#fbbf24" text-anchor="middle">Auto-Detect</text>

    <!-- 15 Frameworks -->
    <rect x="324" width="88" height="22" rx="11" fill="#1a1a1a" opacity=".8" stroke="#f87171" stroke-width=".8"/>
    <text x="368" y="15" fill="#f87171" text-anchor="middle">15 Frameworks</text>
  </g>
</svg>
