<svg xmlns="http://www.w3.org/2000/svg" viewBox="0 0 800 200">
  <defs>
    <linearGradient id="bg-dark" x1="0" y1="0" x2="0" y2="1">
      <stop offset="0%" stop-color="#0c0a09"/>
      <stop offset="100%" stop-color="#1c1917"/>
    </linearGradient>
    <linearGradient id="pulse-green-d" x1="0" y1="0" x2="0" y2="1">
      <stop offset="0%" stop-color="#4ade80"/>
      <stop offset="100%" stop-color="#22c55e"/>
    </linearGradient>
    <linearGradient id="pulse-blue-d" x1="0" y1="0" x2="0" y2="1">
      <stop offset="0%" stop-color="#60a5fa"/>
      <stop offset="100%" stop-color="#3b82f6"/>
    </linearGradient>
    <linearGradient id="pulse-amber-d" x1="0" y1="0" x2="0" y2="1">
      <stop offset="0%" stop-color="#fbbf24"/>
      <stop offset="100%" stop-color="#f59e0b"/>
    </linearGradient>
  </defs>

  <!-- Background -->
  <rect width="800" height="200" rx="16" fill="url(#bg-dark)"/>

  <!-- Monitoring illustration (right side) -->
  <g transform="translate(600, 25)">
    <!-- Dashboard card -->
    <rect width="160" height="140" rx="12" fill="#1a1a1a" stroke="#333" stroke-width="1"/>

    <!-- Heartbeat line -->
    <polyline points="15,80 35,80 45,50 55,110 65,60 75,90 85,80 100,80 110,45 120,95 130,65 140,80 150,80"
              fill="none" stroke="url(#pulse-green-d)" stroke-width="2.5" stroke-linecap="round" stroke-linejoin="round"/>

    <!-- Status dots -->
    <circle cx="25" cy="30" r="5" fill="url(#pulse-green-d)"/>
    <circle cx="43" cy="30" r="5" fill="url(#pulse-green-d)"/>
    <circle cx="61" cy="30" r="5" fill="url(#pulse-blue-d)"/>
    <circle cx="79" cy="30" r="5" fill="url(#pulse-green-d)"/>
    <circle cx="97" cy="30" r="5" fill="url(#pulse-amber-d)"/>
    <circle cx="115" cy="30" r="5" fill="url(#pulse-green-d)"/>
    <circle cx="133" cy="30" r="5" fill="url(#pulse-green-d)"/>

    <!-- Mini bar chart -->
    <rect x="20" y="105" width="12" height="20" rx="2" fill="#1e3a5f" opacity=".8"/>
    <rect x="38" y="98" width="12" height="27" rx="2" fill="#1e40af" opacity=".6"/>
    <rect x="56" y="92" width="12" height="33" rx="2" fill="#3b82f6" opacity=".5"/>
    <rect x="74" y="100" width="12" height="25" rx="2" fill="#1e40af" opacity=".6"/>
    <rect x="92" y="88" width="12" height="37" rx="2" fill="#60a5fa" opacity=".5"/>
    <rect x="110" y="95" width="12" height="30" rx="2" fill="#3b82f6" opacity=".5"/>
    <rect x="128" y="102" width="12" height="23" rx="2" fill="#1e40af" opacity=".6"/>

    <!-- Alert bell icon -->
    <g transform="translate(140, 15)">
      <circle cx="8" cy="4" r="4" fill="url(#pulse-amber-d)" opacity=".3"/>
      <circle cx="8" cy="4" r="2" fill="url(#pulse-amber-d)"/>
    </g>
  </g>

  <!-- Title -->
  <text x="50" y="80" fill="#fff" font-family="system-ui, -apple-system, 'Segoe UI', sans-serif" font-size="36" font-weight="700" letter-spacing="-.5">Laravel Observability</text>

  <!-- Tagline -->
  <text x="50" y="105" fill="#a8a29e" font-family="system-ui, -apple-system, 'Segoe UI', sans-serif" font-size="13">Auto-detect 25+ monitoring providers with health checks and uptime</text>

  <!-- Feature pills -->
  <g transform="translate(50, 125)" font-family="system-ui, -apple-system, 'Segoe UI', sans-serif" font-size="10" font-weight="500">
    <!-- 25+ Providers -->
    <rect width="82" height="22" rx="11" fill="#1a1a1a" opacity=".8" stroke="#a78bfa" stroke-width=".8"/>
    <text x="41" y="15" fill="#a78bfa" text-anchor="middle">25+ Providers</text>

    <!-- Health Checks -->
    <rect x="90" width="82" height="22" rx="11" fill="#1a1a1a" opacity=".8" stroke="#60a5fa" stroke-width=".8"/>
    <text x="131" y="15" fill="#60a5fa" text-anchor="middle">Health Checks</text>

    <!-- Uptime -->
    <rect x="180" width="56" height="22" rx="11" fill="#1a1a1a" opacity=".8" stroke="#4ade80" stroke-width=".8"/>
    <text x="208" y="15" fill="#4ade80" text-anchor="middle">Uptime</text>

    <!-- Auto-Detect -->
    <rect x="244" width="72" height="22" rx="11" fill="#1a1a1a" opacity=".8" stroke="#fbbf24" stroke-width=".8"/>
    <text x="280" y="15" fill="#fbbf24" text-anchor="middle">Auto-Detect</text>

    <!-- 15 Frameworks -->
    <rect x="324" width="88" height="22" rx="11" fill="#1a1a1a" opacity=".8" stroke="#f87171" stroke-width=".8"/>
    <text x="368" y="15" fill="#f87171" text-anchor="middle">15 Frameworks</text>
  </g>
</svg>
