<svg fill="none" viewBox="0 0 800 200" xmlns="http://www.w3.org/2000/svg"><linearGradient id="bg" x1="0" y1="0" x2="0" y2="1"><stop offset="0" stop-color="#0c0a09"/><stop offset="1" stop-color="#1c1917"/></linearGradient><rect fill="url(#bg)" height="200" rx="16" width="800"/><!-- Monitoring dashboard illustration (right side) --><g transform="translate(520, 20)"><!-- Dashboard panel --><rect width="250" height="155" rx="10" fill="#1c1c1e" stroke="#333" stroke-width="1"/><!-- Top bar with status dots --><rect width="250" height="24" rx="10" fill="#252528"/><rect y="14" width="250" height="10" fill="#252528"/><circle cx="16" cy="12" r="4" fill="#ef4444"/><circle cx="28" cy="12" r="4" fill="#f59e0b"/><circle cx="40" cy="12" r="4" fill="#22c55e"/><!-- Uptime line chart --><polyline points="20,75 40,72 60,68 80,70 100,55 115,58 130,45 150,50 170,42 190,48 210,40 230,44" fill="none" stroke="#4ade80" stroke-width="2" stroke-linecap="round" stroke-linejoin="round"/><!-- Chart fill --><polygon points="20,75 40,72 60,68 80,70 100,55 115,58 130,45 150,50 170,42 190,48 210,40 230,44 230,90 20,90" fill="#4ade80" opacity=".06"/><!-- Grid lines --><line x1="20" y1="55" x2="230" y2="55" stroke="#333" stroke-width=".5"/><line x1="20" y1="70" x2="230" y2="70" stroke="#333" stroke-width=".5"/><line x1="20" y1="85" x2="230" y2="85" stroke="#333" stroke-width=".5"/><!-- Metric boxes --><rect x="15" y="100" width="68" height="42" rx="6" fill="#0a1f0a" stroke="#166534" stroke-width=".5"/><text x="49" y="120" fill="#4ade80" font-family="system-ui, sans-serif" font-size="14" font-weight="700" text-anchor="middle">99.9%</text><text x="49" y="133" fill="#22c55e" font-family="system-ui, sans-serif" font-size="7" font-weight="500" text-anchor="middle">UPTIME</text><rect x="91" y="100" width="68" height="42" rx="6" fill="#0a1528" stroke="#1e40af" stroke-width=".5"/><text x="125" y="120" fill="#60a5fa" font-family="system-ui, sans-serif" font-size="14" font-weight="700" text-anchor="middle">142ms</text><text x="125" y="133" fill="#3b82f6" font-family="system-ui, sans-serif" font-size="7" font-weight="500" text-anchor="middle">LATENCY</text><rect x="167" y="100" width="68" height="42" rx="6" fill="#120a28" stroke="#5b21b6" stroke-width=".5"/><text x="201" y="120" fill="#a78bfa" font-family="system-ui, sans-serif" font-size="14" font-weight="700" text-anchor="middle">25</text><text x="201" y="133" fill="#8b5cf6" font-family="system-ui, sans-serif" font-size="7" font-weight="500" text-anchor="middle">PROVIDERS</text></g><!-- Title --><text fill="#fff" font-family="system-ui, -apple-system, 'Segoe UI', sans-serif" font-size="40" font-weight="700" letter-spacing="-.5" x="60" y="75">Laravel</text><text fill="#fff" font-family="system-ui, -apple-system, 'Segoe UI', sans-serif" font-size="40" font-weight="700" letter-spacing="-.5" x="60" y="115">Observability</text><!-- Feature pills --><g transform="translate(60 135)"><rect fill="#1a1a1a" height="22" opacity=".8" rx="11" stroke="#a78bfa" stroke-width=".8" width="82"/><text fill="#a78bfa" font-family="system-ui, sans-serif" font-size="10" font-weight="500" text-anchor="middle" x="41" y="15">25+ Providers</text><rect fill="#1a1a1a" height="22" opacity=".8" rx="11" stroke="#60a5fa" stroke-width=".8" width="82" x="90"/><text fill="#60a5fa" font-family="system-ui, sans-serif" font-size="10" font-weight="500" text-anchor="middle" x="131" y="15">Health Checks</text><rect fill="#1a1a1a" height="22" opacity=".8" rx="11" stroke="#4ade80" stroke-width=".8" width="56" x="180"/><text fill="#4ade80" font-family="system-ui, sans-serif" font-size="10" font-weight="500" text-anchor="middle" x="208" y="15">Uptime</text><rect fill="#1a1a1a" height="22" opacity=".8" rx="11" stroke="#fbbf24" stroke-width=".8" width="72" x="244"/><text fill="#fbbf24" font-family="system-ui, sans-serif" font-size="10" font-weight="500" text-anchor="middle" x="280" y="15">Auto-Detect</text><rect fill="#1a1a1a" height="22" opacity=".8" rx="11" stroke="#f87171" stroke-width=".8" width="88" x="324"/><text fill="#f87171" font-family="system-ui, sans-serif" font-size="10" font-weight="500" text-anchor="middle" x="368" y="15">15 Frameworks</text></g></svg>
