<svg xmlns="http://www.w3.org/2000/svg" viewBox="0 0 800 200">
  <defs>
    <linearGradient id="pulse-green" x1="0" y1="0" x2="0" y2="1">
      <stop offset="0%" stop-color="#4ade80"/>
      <stop offset="100%" stop-color="#22c55e"/>
    </linearGradient>
    <linearGradient id="pulse-blue" x1="0" y1="0" x2="0" y2="1">
      <stop offset="0%" stop-color="#60a5fa"/>
      <stop offset="100%" stop-color="#3b82f6"/>
    </linearGradient>
    <linearGradient id="pulse-amber" x1="0" y1="0" x2="0" y2="1">
      <stop offset="0%" stop-color="#fbbf24"/>
      <stop offset="100%" stop-color="#f59e0b"/>
    </linearGradient>
  </defs>

  <!-- Background -->
  <rect width="800" height="200" rx="16" fill="#fff" stroke="#e5e7eb" stroke-width="1"/>

  <!-- Monitoring illustration (right side) -->
  <g transform="translate(650, 25)">
    <!-- Dashboard card -->
    <rect width="120" height="140" rx="12" fill="#f8fafc" stroke="#e2e8f0" stroke-width="1"/>

    <!-- Heartbeat line -->
    <polyline points="12,75 28,75 36,50 44,100 52,55 60,85 68,75 80,75 88,45 96,90 104,60 110,75"
              fill="none" stroke="url(#pulse-green)" stroke-width="2.5" stroke-linecap="round" stroke-linejoin="round"/>

    <!-- Status dots -->
    <circle cx="20" cy="28" r="4" fill="url(#pulse-green)"/>
    <circle cx="35" cy="28" r="4" fill="url(#pulse-green)"/>
    <circle cx="50" cy="28" r="4" fill="url(#pulse-blue)"/>
    <circle cx="65" cy="28" r="4" fill="url(#pulse-green)"/>
    <circle cx="80" cy="28" r="4" fill="url(#pulse-amber)"/>
    <circle cx="95" cy="28" r="4" fill="url(#pulse-green)"/>

    <!-- Mini bar chart -->
    <rect x="15" y="100" width="10" height="22" rx="2" fill="#dbeafe"/>
    <rect x="30" y="95" width="10" height="27" rx="2" fill="#bfdbfe"/>
    <rect x="45" y="90" width="10" height="32" rx="2" fill="#93c5fd"/>
    <rect x="60" y="97" width="10" height="25" rx="2" fill="#bfdbfe"/>
    <rect x="75" y="86" width="10" height="36" rx="2" fill="#60a5fa"/>
    <rect x="90" y="93" width="10" height="29" rx="2" fill="#93c5fd"/>
  </g>

  <!-- Title -->
  <text x="50" y="80" fill="#0f172a" font-family="system-ui, -apple-system, 'Segoe UI', sans-serif" font-size="36" font-weight="700" letter-spacing="-.5">Laravel Observability</text>

  <!-- Tagline -->
  <text x="50" y="105" fill="#64748b" font-family="system-ui, -apple-system, 'Segoe UI', sans-serif" font-size="13">Auto-detect 25+ monitoring providers with health checks</text>

  <!-- Feature pills -->
  <g transform="translate(50, 125)" font-family="system-ui, -apple-system, 'Segoe UI', sans-serif" font-size="10" font-weight="500">
    <!-- 25+ Providers -->
    <rect width="82" height="22" rx="11" fill="#f5f3ff" stroke="#c4b5fd" stroke-width=".8"/>
    <text x="41" y="15" fill="#6d28d9" text-anchor="middle">25+ Providers</text>

    <!-- Health Checks -->
    <rect x="90" width="82" height="22" rx="11" fill="#eff6ff" stroke="#93c5fd" stroke-width=".8"/>
    <text x="131" y="15" fill="#1e40af" text-anchor="middle">Health Checks</text>

    <!-- Uptime -->
    <rect x="180" width="56" height="22" rx="11" fill="#f0fdf4" stroke="#86efac" stroke-width=".8"/>
    <text x="208" y="15" fill="#166534" text-anchor="middle">Uptime</text>

    <!-- Auto-Detect -->
    <rect x="244" width="72" height="22" rx="11" fill="#fffbeb" stroke="#fcd34d" stroke-width=".8"/>
    <text x="280" y="15" fill="#b45309" text-anchor="middle">Auto-Detect</text>

    <!-- 15 Frameworks -->
    <rect x="324" width="88" height="22" rx="11" fill="#fef2f2" stroke="#fca5a5" stroke-width=".8"/>
    <text x="368" y="15" fill="#b91c1c" text-anchor="middle">15 Frameworks</text>
  </g>
</svg>
